<svg width="3455" height="7785" viewBox="0 0 3455 7785" fill="none" xmlns="http://www.w3.org/2000/svg">
<g style="mix-blend-mode:multiply" opacity="0.21" clip-path="url(#clip0_86_3)">
<rect width="7783.67" height="3454" transform="translate(3455 0.469971) rotate(90)" fill="#FEF6F0"/>
<g opacity="0.2" clip-path="url(#clip1_86_3)">
<path d="M-2682.55 6220.72C-2682.55 6055.92 -2682.55 5890.52 -2682.55 5725.72C-2546.94 5751.87 -2439.31 5825.45 -2346.88 5927C-2362.08 5869.84 -2381.54 5814.5 -2435.05 5787.75C-2522.62 5744.57 -2598.63 5683.16 -2682.55 5633.9C-2682.55 5432.01 -2682.55 5230.73 -2682.55 5028.84C-2663.7 5027.02 -2654.58 5041 -2647.89 5053.16C-2602.89 5132.83 -2538.43 5185.73 -2454.51 5225.86C-2380.93 5260.53 -2322.55 5318.3 -2306.74 5411.34C-2290.93 5504.98 -2222.83 5563.36 -2141.95 5607.14C-2088.44 5636.33 -2037.36 5669.17 -1983.84 5697.75C-1929.72 5726.94 -1873.17 5751.26 -1806.28 5745.18C-1922.42 5677.07 -2028.23 5595.59 -2132.22 5512.89C-2186.95 5469.1 -2219.18 5419.24 -2208.23 5348.7C-2200.33 5293.36 -2220.39 5255.05 -2269.04 5228.3C-2309.18 5206.41 -2346.27 5179.04 -2387.01 5159.58C-2491 5109.72 -2560.32 5021.54 -2615.05 4929.72C-2658.22 4856.75 -2674.04 4759.45 -2615.66 4677.97C-2545.12 4580.06 -2466.07 4491.28 -2329.85 4489.46C-2306.74 4488.85 -2284.24 4475.47 -2261.74 4468.17C-2264.78 4460.27 -2267.83 4452.36 -2270.26 4443.85C-2410.73 4482.77 -2551.81 4519.25 -2682.55 4589.18C-2682.55 4515.6 -2682.55 4442.63 -2682.55 4369.05C-2526.27 4324.05 -2392.49 4248.65 -2309.78 4102.1C-2410.73 4210.95 -2549.37 4238.31 -2682.55 4277.23C-2682.55 4167.16 -2682.55 4057.1 -2682.55 3947.03C-2664.31 3945.82 -2646.06 3942.17 -2627.82 3943.38C-2480.66 3954.33 -2354.18 3912.98 -2241.07 3814.47C-2180.26 3760.95 -2138.91 3695.28 -2087.22 3635.69C-1942.49 3467.85 -1741.82 3414.34 -1533.85 3383.93C-1487.03 3377.24 -1443.85 3402.18 -1412.84 3438.66C-1367.84 3490.35 -1309.46 3523.19 -1254.12 3560.89C-1189.06 3605.89 -1126.42 3655.75 -1069.26 3709.87C-1007.24 3768.86 -980.479 3850.34 -1012.1 3927.57C-1040.68 3997.5 -1120.95 3994.46 -1188.45 3995.07C-1294.87 3996.9 -1392.16 3970.75 -1479.12 3904.47C-1524.73 3869.8 -1578.24 3844.87 -1631.15 3821.16C-1829.99 3731.16 -1902.36 3746.36 -2053.17 3902.03C-2159.58 4012.1 -2152.29 4144.06 -2032.49 4239.53C-1859.18 4377.57 -1652.43 4438.98 -1443.85 4497.36C-1303.99 4536.28 -1164.73 4544.79 -1030.34 4491.28C-883.183 4432.9 -739.063 4443.24 -591.295 4477.29C-435.014 4513.17 -165.018 4377.57 -101.775 4231.62C-96.9104 4220.68 -87.1806 4207.91 -89.0049 4197.57C-110.288 4079.6 -90.8291 3957.37 -157.72 3843.66C-260.489 3670.35 -393.663 3526.84 -543.863 3396.09C-637.51 3314.61 -678.253 3202.11 -723.861 3092.65C-740.888 3051.91 -729.334 3017.25 -697.713 2985.63C-601.633 2890.76 -482.445 2857.93 -354.136 2870.7C-230.084 2883.47 -194.814 2921.17 -185.085 3045.83C-177.787 3138.87 -161.977 3231.91 -175.963 3326.77C-194.814 3456.9 -129.748 3554.81 -4.47931 3591.9C245.45 3666.09 523.351 3480.62 625.512 3272.65C752.605 3014.82 627.944 2584.28 351.867 2465.7C298.963 2443.2 249.706 2412.8 196.194 2390.3C120.181 2358.68 47.8175 2316.11 -0.830434 2246.79C-38.5326 2193.27 -56.7757 2136.72 14.98 2090.51C31.3987 2079.56 56.9388 2066.79 50.2497 2042.47C42.3444 2013.28 10.7235 2017.53 -11.7761 2014.49C-47.0459 2009.63 -84.7481 2021.18 -99.9505 2051.59C-135.22 2121.52 -172.922 2192.67 -163.801 2275.37C-159.544 2312.46 -143.126 2347.73 -110.897 2368.41C-8.12786 2434.08 92.8167 2502.8 200.45 2559.35C265.517 2593.4 319.03 2633.54 356.732 2694.96C399.907 2764.89 443.69 2835.43 481.392 2908.4C561.661 3063.46 450.379 3259.88 276.463 3275.08C125.654 3288.46 -9.34379 3182.65 -45.2216 3021.51C-62.8565 2942.45 -84.7481 2867.05 -154.68 2817.18C-323.123 2698.6 -692.239 2718.67 -847.913 2854.28C-962.235 2954.01 -974.398 3073.8 -877.102 3189.95C-834.535 3241.03 -781.63 3284.2 -737.847 3334.68C-602.241 3491.57 -488.526 3666.09 -332.853 3806.56C-300.016 3836.36 -276.3 3878.93 -254.408 3918.45C-195.422 4024.87 -184.477 4125.21 -269.003 4231.62C-348.664 4331.96 -441.703 4325.27 -548.728 4305.2C-715.347 4273.58 -886.223 4256.55 -1043.72 4328.92C-1157.44 4380.61 -1271.15 4400.67 -1389.73 4387.3C-1570.94 4366.62 -1741.21 4314.93 -1874.38 4178.72C-1973.51 4077.77 -1956.48 3954.33 -1834.86 3886.22C-1777.09 3853.99 -1732.09 3872.84 -1682.83 3903.86C-1543.58 3990.82 -1405.54 4082.64 -1239.53 4114.26C-1038.25 4152.57 -880.75 4068.65 -802.914 3882.57C-787.103 3845.48 -783.454 3808.39 -803.522 3768.25C-878.318 3615.01 -990.816 3497.65 -1139.19 3417.38C-1238.31 3363.87 -1344.12 3323.12 -1443.24 3269C-1595.88 3186.3 -1727.22 3223.39 -1857.36 3321.3C-1992.36 3422.24 -2105.46 3546.9 -2237.42 3650.89C-2368.16 3754.26 -2500.73 3850.34 -2680.12 3834.53C-2680.12 3718.39 -2680.12 3602.24 -2680.12 3486.09C-2577.96 3500.69 -2474.58 3529.88 -2352.96 3475.76C-2476.4 3462.99 -2586.47 3501.3 -2680.12 3430.76C-2680.12 3338.93 -2680.12 3247.72 -2680.12 3155.9C-2626.6 3177.79 -2573.7 3200.89 -2519.58 3220.96C-2475.79 3236.77 -2428.36 3245.89 -2386.4 3222.18C-2266.61 3154.68 -2134.65 3134 -2002.09 3115.76C-1854.93 3095.08 -1739.99 3023.33 -1648.17 2910.83C-1596.48 2846.98 -1581.89 2772.18 -1613.51 2696.78C-1645.13 2620.77 -1712.63 2590.97 -1790.47 2589.15C-1975.94 2584.89 -2155.33 2611.04 -2308.57 2727.79C-2419.24 2812.32 -2536.6 2867.05 -2680.12 2826.31C-2680.12 2795.9 -2680.12 2765.5 -2680.12 2734.48C-2547.55 2741.17 -2430.19 2712.59 -2359.04 2587.93C-2326.2 2529.55 -2294.58 2469.96 -2271.47 2407.32C-2248.37 2344.08 -2255.05 2274.15 -2308.57 2230.37C-2361.47 2187.19 -2414.98 2135.5 -2488.56 2126.99C-2574.31 2117.26 -2633.9 2069.83 -2680.72 2001.11C-2680.72 1548.69 -2680.72 1096.87 -2680.72 644.445C-2677.68 643.837 -2674.64 643.229 -2671.6 642.62C-2537.82 610.999 -2401 602.486 -2289.72 495.46C-2207.62 417.016 -2095.73 355.598 -1980.8 350.733C-1789.25 342.219 -1633.58 258.302 -1490.07 151.276C-1314.33 20.5349 -1127.03 -31.1536 -914.804 13.2377C-751.833 47.2913 -616.227 9.58909 -497.648 -108.99C-438.662 -167.976 -414.338 -242.164 -385.149 -314.528C-324.339 -465.336 -360.217 -542.565 -535.35 -619.794C-481.837 -517.633 -466.026 -423.986 -495.215 -323.041C-543.863 -155.814 -679.469 -60.9505 -832.71 -86.4906C-1051.02 -122.977 -1258.99 -87.0988 -1444.46 36.3454C-1673.71 188.978 -1923.03 288.099 -2191.81 341.003C-2241.68 350.733 -2297.01 356.814 -2328.63 406.07C-2411.34 533.771 -2542.08 567.824 -2680.72 589.108C-2680.72 503.366 -2680.72 418.232 -2680.72 332.49C-2548.16 312.422 -2416.2 288.707 -2282.42 274.72C-2296.41 262.558 -2308.57 264.383 -2320.12 262.558C-2443.56 237.626 -2558.5 308.166 -2680.72 296.004C-2680.72 222.424 -2680.72 149.452 -2680.72 75.8718C-2592.55 91.6824 -2519.58 148.844 -2419.85 139.114C-2241.68 122.087 -2093.91 48.5074 -1955.87 -56.6938C-1900.53 -98.6527 -1840.33 -118.72 -1770.4 -121.76C-1630.54 -127.233 -1488.85 -135.139 -1358.11 -188.043C-1246.22 -233.651 -1133.11 -284.731 -1057.71 -388.716C-1136.76 -358.311 -1210.95 -318.785 -1284.53 -278.65C-1341.69 -247.637 -1400.07 -227.57 -1466.96 -228.178C-1715.06 -229.394 -1946.75 -179.53 -2162.02 -43.3156C-2324.99 60.0613 -2505.59 127.56 -2681.33 -34.8023C-2681.33 -270.137 -2678.9 -505.471 -2683.16 -740.806C-2683.76 -795.534 -2672.21 -806.48 -2617.48 -806.48C-2015.46 -804.048 -1413.45 -804.656 -812.035 -804.656C-849.737 -751.751 -854.602 -695.806 -833.926 -634.388C-819.94 -594.254 -815.076 -551.078 -801.089 -510.944C-771.292 -427.026 -796.833 -377.77 -883.183 -352.838C-926.358 -340.676 -966.492 -316.352 -1007.84 -296.285C-1032.78 -284.123 -1063.79 -267.096 -1052.23 -236.083C-1039.46 -202.638 -1007.84 -206.286 -974.398 -216.016C-807.778 -265.88 -712.915 -407.567 -737.239 -576.011C-757.914 -717.698 -733.59 -769.386 -628.997 -804.048C-378.46 -804.048 -127.923 -804.048 122.614 -804.048C177.951 -772.427 236.328 -749.319 296.53 -727.427C364.029 -703.103 439.434 -697.63 497.811 -646.55C584.769 -566.889 683.281 -501.822 761.118 -417.297C890.643 -277.434 1045.71 -181.354 1217.8 -107.774C1383.81 -37.2345 1510.9 100.804 1685.43 156.749C1849.01 209.654 1993.13 313.639 2173.12 326.409C2328.8 337.355 2627.38 233.37 2670.55 109.926C2739.87 -87.0986 2908.32 -147.3 3068.86 -223.313C3127.23 -251.285 3191.08 -252.502 3256.76 -242.772C3446.48 -213.583 3636.82 -185.611 3827.76 -165.543C3941.48 -153.989 3942.09 -160.679 3928.71 -42.0992C3896.48 -38.4506 3868.51 -54.2611 3844.18 -70.0717C3552.29 -261.623 3305.41 -50.6126 3222.1 190.803C3199.6 255.261 3206.29 313.639 3237.91 375.057C3318.18 532.555 3267.7 638.364 3098.65 680.323C3071.9 687.012 3046.36 696.133 3018.99 702.214C2735.01 761.808 2469.27 877.347 2194.41 964.913C2150.02 978.9 2126.3 1010.52 2139.68 1055.52C2158.53 1119.37 2160.35 1186.87 2188.33 1249.5C2267.38 1430.11 2246.7 1522.54 2097.72 1652.67C1998.6 1739.63 1910.43 1836.32 1822.25 1933.62C1782.72 1977.4 1769.95 2029.7 1807.05 2075.3C1912.25 2203 1959.68 2367.8 2079.48 2485.16C2114.14 2519.22 2125.69 2559.96 2123.87 2609.82C2119 2751.51 2105.02 2881.64 1989.48 2992.32C1880.63 3095.69 1920.76 3222.79 2060.63 3281.77C2108.67 3301.84 2158.53 3316.43 2205.96 3337.72C2317.85 3388.19 2424.88 3448.39 2502.11 3546.9C2552.58 3611.97 2614 3655.75 2690.62 3685.55C2865.75 3753.05 3042.1 3805.95 3234.26 3777.98C3456.21 3746.36 3683.64 3740.89 3887.96 3630.82C3901.34 3623.52 3915.33 3611.97 3927.49 3627.78C3939.65 3643.59 3937.83 3663.66 3927.49 3679.47C3911.68 3704.4 3882.49 3708.66 3856.95 3718.39C3769.99 3751.22 3683.04 3784.06 3596.08 3816.9C3684.25 3816.9 3769.39 3811.43 3850.87 3784.06C3875.19 3776.16 3906.21 3750.62 3926.28 3774.94C3947.56 3801.09 3939.65 3841.22 3931.75 3872.24C3919.59 3919.06 3873.37 3909.33 3839.32 3912.37C3641.68 3929.4 3445.27 3957.98 3248.85 3984.13C3088.92 4005.41 2938.11 4077.17 2773.93 4074.73C2480.82 4071.08 2187.72 4066.22 1895.22 4059.53C1593 4052.84 1309.62 4123.99 1046.32 4270.54C905.846 4348.38 734.969 4562.43 700.916 4708.37C745.915 4671.89 784.226 4628.1 818.887 4581.89C939.291 4418.31 1111.99 4322.84 1288.34 4242.57C1542.53 4127.03 1815.56 4126.42 2086.77 4169.6C2214.48 4189.66 2339.74 4201.22 2468.05 4182.37C2754.47 4140.41 3045.14 4134.94 3326.08 4053.45C3504.25 4001.76 3686.08 3961.02 3870.33 3932.44C3920.8 3924.53 3935.4 3938.52 3936.61 3987.17C3937.83 4043.72 3923.84 4071.69 3859.38 4085.68C3643.51 4131.89 3430.07 4188.45 3215.41 4240.74C3434.93 4235.27 3641.08 4165.34 3854.52 4132.5C3878.84 4128.85 3918.98 4113.65 3925.06 4148.92C3932.36 4192.1 3887.96 4187.23 3859.99 4191.49C3780.94 4204.26 3701.28 4215.81 3622.23 4227.97C3706.14 4241.35 3788.24 4243.78 3870.33 4249.87C3891.61 4251.69 3928.71 4241.96 3929.32 4276.62C3929.92 4313.11 3893.44 4302.16 3872.15 4301.55C3628.91 4292.43 3391.76 4346.55 3156.42 4392.16C2790.35 4462.7 2430.96 4477.9 2070.36 4373.92C1939.61 4336.22 1805.83 4328.92 1670.83 4339.26C1597.86 4344.73 1525.5 4354.46 1453.74 4367.23C1425.77 4372.09 1388.07 4385.47 1395.37 4424.39C1401.45 4456.01 1435.5 4457.84 1463.47 4456.62C1509.08 4454.8 1555.3 4453.58 1600.3 4446.89C1788.81 4420.74 1977.32 4421.96 2164.61 4452.97C2367.11 4486.42 2570.21 4504.66 2775.14 4491.89C3118.11 4470.61 3459.86 4415.88 3805.26 4437.16C3817.43 4437.77 3829.59 4435.34 3841.75 4434.73C3877.02 4432.9 3923.84 4398.85 3934.18 4466.35C3944.52 4533.24 3894.65 4530.81 3852.7 4533.85C3658.1 4547.83 3463.51 4569.73 3267.7 4564.86C3032.98 4558.78 2818.93 4606.82 2626.16 4758.24C2519.74 4841.55 2406.63 4920.6 2285.62 4987.49C1984.61 5152.89 1684.21 5320.12 1400.84 5517.14C1242.73 5627.21 1086.45 5750.65 890.643 5796.26C795.779 5818.15 700.308 5837 605.445 5860.11C339.705 5924.57 64.844 5961.66 -167.45 6124.03C-150.423 6120.38 -132.18 6117.95 -115.153 6111.87C98.2897 6039.5 311.733 5953.15 535.513 5932.48C831.049 5905.11 1077.33 5772.55 1318.75 5623.56C1422.73 5559.71 1529.76 5501.94 1636.17 5442.35C1947.52 5268.43 2263.73 5106.07 2559.88 4902.96C2811.63 4730.26 3092.57 4618.37 3413.04 4674.32C3469.59 4684.05 3527.97 4676.75 3585.74 4664.59C3675.13 4646.35 3766.95 4637.23 3856.34 4618.37C3924.45 4603.78 3945.13 4631.75 3941.48 4693.78C3939.65 4721.14 3939.05 4748.51 3939.65 4775.87C3940.87 4820.87 3914.72 4840.33 3876.41 4831.21C3693.37 4785.6 3511.55 4842.15 3329.12 4833.64C3124.19 4823.91 2936.9 4876.82 2763.59 4983.23C2716.16 5012.42 2666.9 5042.22 2613.39 5048.3C2454.07 5065.93 2348.87 5166.27 2252.18 5276.95C2197.45 5339.58 2136.64 5382.75 2056.37 5403.43C1937.18 5434.44 1826.51 5478.83 1741.98 5577.35C1693.33 5633.9 1622.19 5664.3 1548 5672.21C1413.61 5686.8 1306.58 5753.09 1208.07 5837.61C1175.23 5865.59 1141.18 5888.09 1100.44 5904.5C890.643 5988.42 672.335 6044.97 453.42 6098.49C323.895 6130.11 195.585 6166.59 66.0603 6201.26C183.423 6208.55 287.409 6157.47 398.691 6142.27C826.185 6082.68 1223.27 5927 1609.42 5746.4C1871.51 5624.17 2119.61 5472.15 2372.58 5332.28C2423.05 5304.31 2471.7 5270.86 2529.47 5260.53C2626.77 5242.89 2704 5187.55 2775.14 5125.53C2816.49 5089.04 2860.88 5067.76 2913.18 5062.29C2966.09 5056.81 3014.73 5041 3060.34 5016.07C3148.52 4967.42 3242.16 4948.57 3342.5 4953.44C3484.79 4960.13 3624.05 4975.94 3768.78 4935.8C3911.07 4896.28 3937.22 4930.94 3936 5082.35C3936 5100.6 3934.18 5118.84 3935.4 5137.08C3938.44 5184.51 3914.72 5199.11 3869.11 5200.93C3639.86 5211.27 3413.04 5240.46 3194.12 5309.78C2866.36 5413.16 2532.51 5500.73 2236.98 5689.84C2039.95 5815.72 1860.56 5968.96 1644.08 6066.26C1568.07 6100.31 1501.17 6159.91 1437.32 6216.46C1300.5 6338.08 1299.29 6510.78 1426.38 6640.3C1479.89 6694.42 1528.54 6754.02 1580.23 6809.96C1622.19 6855.57 1617.93 6899.35 1588.74 6951.04C1489.01 7129.82 1337.6 7216.78 1134.49 7215.57C1116.25 7215.57 1098 7214.35 1079.76 7214.96C1061.52 7215.57 1039.63 7215.57 1039.02 7240.5C1038.41 7263.61 1062.13 7272.12 1077.94 7270.9C1134.49 7266.65 1195.3 7314.08 1248.21 7255.7C1256.72 7245.97 1286.52 7228.94 1296.25 7263C1299.29 7273.94 1267.06 7286.11 1288.95 7298.88C1310.84 7312.25 1321.18 7289.15 1329.08 7273.94C1339.42 7254.48 1351.58 7250.23 1357.66 7272.73C1371.65 7328.67 1407.53 7300.09 1437.32 7297.05C1582.66 7281.24 1662.93 7190.63 1711.58 7061.72C1765.09 6921.25 1768.74 6811.18 1655.63 6733.95C1620.97 6710.24 1596.04 6673.14 1567.46 6641.52C1480.5 6546.66 1478.07 6506.52 1542.53 6389.77C1692.73 6116.12 1957.86 5970.79 2207.18 5818.76C2476.57 5654.58 2780.62 5553.63 3073.11 5432.62C3327.91 5327.42 3594.25 5351.13 3855.13 5316.47C3898.91 5311 3934.79 5329.24 3935.4 5381.54C3936 5442.35 3936 5503.77 3934.79 5564.58C3934.18 5596.2 3923.84 5610.18 3889.79 5591.94C3676.95 5476.4 3449.53 5528.7 3225.74 5535.39C3060.34 5540.25 2932.03 5650.32 2783.66 5695.32C2528.25 5772.55 2321.5 5934.3 2089.81 6051.06C1889.75 6152 1872.12 6364.83 2018.06 6531.45C2213.26 6754.02 2271.03 6975.97 2078.87 7251.44C2066.71 7269.08 2055.76 7287.32 2046.64 7306.78C1911.03 7602.93 1654.42 7736.71 1358.27 7813.33C1300.5 7827.92 1236.65 7818.8 1175.84 7821.23C1155.77 7821.84 1136.92 7829.14 1138.14 7851.64C1139.36 7874.75 1160.64 7883.87 1178.27 7876.57C1273.75 7834 1375.3 7871.1 1473.81 7851.03C1548.61 7835.83 1615.5 7795.69 1691.51 7790.83C1788.2 7785.35 1858.13 7740.36 1909.82 7660.69C2032.05 7471.58 2157.92 7284.89 2264.95 7086.04C2373.19 6885.37 2356.16 6736.99 2206.57 6566.12C2176.77 6532.06 2147.58 6496.18 2123.26 6457.27C2084.34 6395.24 2085.56 6339.29 2131.77 6272.4C2256.43 6089.97 2463.19 6020.04 2629.81 5895.99C2742.31 5812.68 2894.94 5824.23 3012.91 5752.48C3222.7 5624.78 3451.35 5593.76 3690.33 5607.75C3869.11 5618.7 3937.22 5688.02 3937.22 5863.15C3937.22 6009.7 3940.87 6156.26 3935.4 6302.81C3929.32 6463.35 3944.52 6623.28 3910.46 6785.03C3880.06 6929.76 3872.76 7082.39 3925.06 7229.55C3936 7259.96 3934.79 7295.83 3935.4 7329.28C3936.61 7484.95 3936.61 7640.63 3934.79 7796.3C3934.18 7823.06 3956.07 7865.02 3914.11 7874.75C3882.49 7882.04 3858.78 7851.03 3842.97 7825.49C3828.98 7802.99 3818.64 7776.23 3813.17 7750.09C3776.68 7562.79 3744.45 7374.89 3727.43 7185.16C3723.78 7141.38 3724.39 7100.03 3661.75 7126.78C3707.36 7094.55 3726.82 7052.59 3726.82 6994.83C3727.43 6826.99 3737.76 6660.37 3790.06 6498.62C3801.61 6462.13 3791.28 6418.96 3799.79 6381.25C3853.91 6136.19 3725.6 6003.62 3521.28 5911.19C3469.59 5888.09 3419.73 5871.06 3363.18 5877.75C3022.03 5916.67 2730.75 6046.19 2529.47 6339.29C2461.97 6437.2 2450.42 6569.76 2513.05 6673.75C2532.51 6705.98 2548.93 6737.6 2547.71 6775.91C2545.28 6839.76 2568.39 6895.1 2604.88 6946.18C2671.77 7041.65 2695.48 7146.85 2699.74 7264.21C2702.78 7355.43 2649.87 7422.32 2626.77 7505.02C2747.17 7483.74 2747.17 7483.74 2775.14 7371.85C2777.58 7362.73 2781.83 7354.82 2783.05 7345.7C2803.72 7194.28 2794.6 7043.47 2723.45 6909.08C2655.35 6779.56 2635.89 6647.6 2677.24 6514.43C2738.05 6320.44 2821.36 6138.01 3042.71 6071.73C3076.76 6061.39 3106.56 6037.07 3138.79 6018.83C3272.57 5942.81 3496.96 5990.25 3601.55 6103.35C3745.06 6257.81 3665.4 6456.66 3718.91 6628.14C3735.33 6680.44 3676.35 6673.75 3653.85 6696.25C3645.33 6704.76 3656.28 6730.91 3656.28 6748.55C3655.67 6875.03 3693.37 7000.3 3662.36 7126.78C3616.75 7318.94 3574.79 7509.89 3760.26 7660.09C3763.3 7662.52 3761.48 7671.64 3761.48 7677.72C3737.16 7705.09 3714.66 7644.28 3690.94 7676.51C3743.85 7859.54 3714.05 7924 3898.3 8010.96C3939.05 8030.42 3935.4 8069.34 3934.79 8106.43C3934.79 8265.75 3921.41 8425.08 3934.18 8584.4C3414.86 8584.4 2895.55 8584.4 2375.62 8584.4C2472.31 8543.05 2574.47 8541.22 2676.63 8540.01C2708.25 8539.4 2746.56 8553.99 2770.28 8510.21C2575.08 8513.25 2382.31 8540.01 2192.58 8585.01C1948.13 8585.01 1703.67 8585.01 1459.22 8585.01C1482.32 8513.86 1543.13 8478.59 1596.04 8434.8C1519.42 8468.86 1448.88 8509.6 1403.88 8585.01C1269.49 8585.01 1135.1 8585.01 1000.71 8585.01C1029.29 8561.29 1054.22 8530.28 1087.06 8515.07C1187.4 8467.64 1290.77 8426.29 1392.93 8381.29C1395.97 8380.08 1395.37 8370.35 1396.58 8364.27C1313.27 8324.13 1192.26 8334.47 1174.02 8398.32C1158.21 8453.66 1126.59 8440.28 1096.18 8456.09C1033.55 8488.32 953.277 8502.91 927.737 8585.01C701.524 8585.01 475.311 8585.01 249.706 8585.01C322.07 8519.94 407.812 8483.45 503.892 8460.95C485.041 8450.01 468.014 8445.75 450.987 8445.14C303.827 8439.67 194.369 8537.57 66.6682 8585.01C-116.37 8585.01 -300.016 8585.01 -483.053 8585.01C-462.986 8564.94 -436.23 8562.51 -410.69 8554.6C-318.867 8526.63 -212.449 8586.83 -129.748 8507.78C-134.005 8515.07 -141.91 8528.45 -141.91 8528.45C-93.2619 8559.47 -50.6949 8533.32 -6.9117 8513.25C32.0067 8495.01 49.0334 8467.64 29.5743 8425.08C59.9792 8441.49 75.7897 8417.17 90.9922 8400.75C141.464 8344.81 194.977 8291.9 258.219 8249.94C159.099 8266.97 85.5192 8334.47 -1.43902 8375.21C-27.5873 8387.37 -23.9386 8394.06 30.1822 8414.74C-8.73615 8465.82 -86.5729 8450.01 -123.059 8505.34C-106.032 8450.62 -117.586 8420.82 -183.261 8433.59C-230.692 8442.71 -279.948 8474.94 -325.556 8457.3C-385.15 8434.8 -344.407 8361.22 -376.028 8318.66C-390.622 8298.59 -413.122 8268.19 -380.893 8246.9C-353.528 8228.66 -325.556 8231.7 -306.097 8269.4C-289.678 8300.42 -258.057 8287.04 -232.517 8277.31C-217.922 8271.83 -207.584 8257.85 -213.665 8240.82C-223.395 8212.85 -248.935 8206.77 -273.259 8208.59C-383.325 8217.71 -355.961 8135.62 -357.785 8077.85C-359.609 8022.51 -376.028 7950.15 -264.746 7969.61C-384.542 7930.69 -352.312 7839.48 -355.961 7764.68C-358.393 7712.38 -329.813 7708.13 -292.11 7733.67C-225.828 7778.67 -151.639 7806.03 -78.0594 7835.83C-33.06 7854.07 8.89898 7880.22 42.9525 7916.1C66.6684 7941.03 78.2222 7961.7 43.5605 7991.5C10.115 8020.69 -77.4514 8029.81 -42.7897 8088.8C-5.08754 8152.65 53.29 8079.07 100.114 8067.51C170.653 8049.88 249.706 8012.18 255.787 7934.34C263.085 7844.34 164.572 7832.79 104.978 7795.69C72.141 7775.63 39.9119 7792.04 7.07454 7796.3C-28.8033 7801.17 -73.8026 7810.9 -89.0051 7768.33C-118.802 7683.8 -199.071 7675.9 -255.016 7682.59C-298.799 7687.45 -310.961 7669.82 -327.988 7650.96C-377.852 7596.24 -367.515 7525.09 -343.799 7470.36C-321.299 7418.67 -259.881 7453.94 -219.138 7463.67C-166.234 7475.83 -116.978 7502.59 -50.6949 7529.34C-96.9104 7466.71 -160.153 7431.44 -229.476 7419.28C-358.393 7396.78 -358.393 7396.78 -358.393 7268.47C-358.393 7231.98 -356.569 7194.89 -356.569 7158.4C-356.569 7106.72 -338.326 7089.69 -282.381 7103.68C-163.193 7133.47 -49.4787 7175.43 55.7225 7239.28C105.587 7269.69 157.275 7289.15 218.085 7294.62C443.082 7314.08 657.133 7220.43 881.521 7236.85C904.629 7238.67 925.913 7221.65 926.521 7199.15C926.521 7175.43 900.981 7179.08 883.346 7176.65C742.267 7153.54 601.188 7129.22 459.501 7107.93C416.326 7101.24 373.758 7112.19 339.097 7140.77C259.436 7205.23 175.518 7196.11 89.168 7159.62C30.1823 7134.69 -28.8031 7109.76 -87.7888 7086.65C-164.409 7056.85 -239.814 7020.37 -318.867 7001.52C-368.123 6989.96 -345.623 6913.34 -406.433 6924.89C-449 6932.8 -469.675 6906.65 -494.607 6876.25C-563.323 6793.54 -669.132 6786.86 -760.955 6747.94C-726.901 6793.54 -684.943 6825.77 -646.024 6861.65C-630.214 6876.25 -597.376 6889.62 -613.795 6918.81C-625.349 6938.88 -652.105 6933.41 -672.78 6930.37C-703.185 6925.5 -736.631 6916.99 -759.131 6943.14C-788.927 6978.41 -814.468 6970.5 -843.657 6944.35C-860.075 6929.76 -880.751 6926.72 -903.25 6927.33C-979.871 6928.54 -1049.8 6966.24 -1136.15 6932.8C-1173.25 6918.21 -1250.48 6920.03 -1308.85 6928.54C-1400.68 6942.53 -1419.53 6875.03 -1409.19 6816.65C-1393.99 6731.52 -1396.42 6646.99 -1393.38 6561.86C-1389.12 6465.78 -1328.31 6405.58 -1232.84 6420.78C-943.993 6466.39 -655.754 6514.43 -368.731 6569.76C-222.787 6597.74 -122.451 6680.44 -107.248 6844.02C-99.9508 6923.68 -56.7759 6992.39 28.3581 7009.42C161.532 7036.18 295.922 7014.89 428.487 6996.04C452.811 6992.39 464.973 6966.24 472.879 6940.1C388.961 6924.89 306.26 6903.61 222.342 6896.31C80.0467 6883.54 -6.91178 6816.65 -67.1136 6683.48C-116.978 6574.02 -217.922 6498.62 -343.799 6482.2C-509.81 6460.31 -676.429 6438.41 -835.751 6386.12C-999.33 6333.21 -1161.08 6280.92 -1336.22 6332C-1367.23 6341.12 -1388.51 6326.52 -1390.34 6289.43C-1392.16 6249.9 -1376.35 6233.49 -1336.82 6236.53C-1240.14 6243.82 -1147.71 6220.72 -1058.92 6188.49C-945.817 6147.74 -829.062 6133.76 -711.699 6122.2C-393.055 6090.58 -101.775 5995.11 155.451 5793.22C339.705 5648.49 538.553 5522.01 761.726 5439.31C987.331 5356 1184.96 5234.99 1344.29 5045.87C1462.26 4906.01 1614.28 4797.76 1801.58 4758.24C1884.89 4740.6 1969.41 4727.22 2052.72 4710.2C2275.29 4664.59 2498.46 4618.37 2721.02 4572.16C2661.43 4560.6 2604.88 4558.17 2547.11 4567.29C2285.62 4609.25 2024.14 4655.47 1762.66 4698.04C1544.35 4733.3 1362.53 4816.01 1209.9 4970.46C1143 5037.96 1073.68 5102.42 994.628 5154.72C789.09 5290.32 599.363 5458.77 362.813 5537.21C153.018 5606.53 -14.2089 5736.06 -179.612 5868.63C-284.205 5952.54 -400.352 5997.54 -524.404 6024.3C-762.171 6075.99 -1010.28 6073.56 -1243.18 6153.22C-1376.35 6198.82 -1508.92 6179.36 -1637.23 6134.36C-1916.95 6035.24 -2128.57 5846.73 -2303.09 5612.62C-2345.66 5554.85 -2389.44 5499.51 -2450.86 5461.2C-2259.92 5809.03 -2041 6125.85 -1612.9 6216.46C-1650.6 6226.19 -1683.44 6226.8 -1716.89 6226.19C-1868.91 6224.36 -2020.33 6215.85 -2172.35 6221.32C-2341.41 6227.4 -2512.28 6229.23 -2682.55 6220.72ZM403.555 6702.33C374.367 6695.03 351.259 6712.06 326.327 6721.79C218.085 6763.75 175.518 6747.33 128.694 6646.38C97.0733 6723.61 149.37 6785.64 238.76 6775.3C300.786 6768 350.651 6732.74 402.339 6700.51C494.77 6660.98 583.553 6668.28 669.295 6720.57C765.375 6779.56 866.927 6813.61 990.371 6778.95C888.211 6757.67 798.82 6732.73 717.335 6672.53C639.498 6615.37 472.879 6642.74 403.555 6702.33ZM2491.16 7747.04C2578.73 7714.21 2567.17 7643.06 2561.09 7567.66C2460.15 7604.14 2509.4 7689.28 2493.59 7750.09C2415.76 7675.29 2349.47 7706.91 2272.85 7760.42C2131.77 7859.54 1963.94 7905.15 1802.79 7957.45C1735.29 7979.34 1656.24 7996.97 1579.62 7979.95C1487.19 7993.32 1409.96 8057.18 1307.19 8045.62C1195.91 8033.46 1095.57 8097.92 987.939 8120.42C910.71 8136.84 840.779 8189.74 766.591 8223.79C717.335 8246.9 680.848 8280.35 664.43 8332.64C678.416 8310.14 685.105 8289.47 645.579 8297.37C601.796 8305.89 563.485 8325.96 533.688 8367.31C584.769 8389.81 616.39 8364.27 649.227 8343.59C644.363 8363.05 643.754 8408.66 656.525 8391.63C703.348 8329 769.023 8365.48 820.711 8340.55C921.048 8291.29 1020.78 8235.96 1132.67 8218.32C1236.04 8201.9 1329.08 8150.21 1437.32 8149C1539.48 8147.78 1558.94 8059.61 1579.62 7979.95C1584.48 8015.82 1672.66 8037.11 1594.21 8090.01C1636.17 8105.22 1667.79 8094.88 1691.51 8063.86C1700.63 8051.7 1709.14 8030.42 1723.13 8040.76C1780.9 8080.28 1827.12 8035.28 1875.76 8021.91C2094.68 7961.7 2300.83 7871.71 2491.16 7747.04ZM3472.02 7886.3C3430.07 7927.04 3433.71 7986.03 3415.47 8035.28C3400.88 8075.42 3500.61 8158.12 3545 8149.61C3566.28 8145.96 3575.4 8129.54 3577.83 8111.3C3580.87 8091.84 3588.78 8065.08 3551.69 8069.95C3510.33 8075.42 3522.5 8051.7 3531.01 8032.24C3562.02 7961.1 3542.56 7911.23 3468.38 7884.48C3504.86 7879.61 3531.01 7866.84 3501.82 7826.1C3417.9 7708.13 3434.93 7587.11 3492.09 7466.1C3509.12 7430.22 3513.98 7395.56 3495.13 7361.51C3412.43 7213.74 3388.72 7059.89 3445.27 6897.53C3455 6870.17 3448.92 6845.23 3440.4 6817.87C3398.44 6685.91 3288.99 6607.47 3195.34 6519.9C3148.52 6476.12 3062.17 6488.28 3029.33 6536.32C2966.69 6627.53 2915.01 6731.52 2936.9 6852.53C2961.83 6989.96 3003.18 7124.35 3011.09 7264.82C3012.3 7283.06 3012.91 7309.21 3044.53 7311.65C3046.36 7301.92 3049.4 7293.4 3048.79 7284.89C3046.96 7266.65 3043.92 7248.4 3039.67 7230.77C3001.36 7062.93 2986.15 6899.96 3077.98 6739.42C3126.62 6654.9 3205.07 6631.18 3261.62 6713.88C3345.54 6836.11 3388.72 6975.37 3376.55 7126.18C3365 7268.47 3312.7 7407.12 3338.24 7551.85C3359.53 7671.64 3363.78 7799.95 3472.02 7886.3ZM-2449.04 1060.99C-2446 1124.84 -2418.63 1175.32 -2386.4 1222.75C-2345.66 1282.34 -2339.58 1336.46 -2387.62 1397.88C-2447.82 1474.5 -2459.98 1570.58 -2473.36 1663.62C-2484.92 1743.28 -2456.34 1804.09 -2380.93 1845.44C-2247.15 1919.02 -2110.94 1990.78 -2050.13 2146.45C-2042.22 2167.13 -2017.9 2182.94 -1999.05 2198.14C-1864.05 2310.64 -1702.29 2361.11 -1533.85 2362.93C-1372.09 2364.76 -1229.19 2396.38 -1094.8 2487.59C-963.452 2575.77 -812.643 2578.81 -662.442 2545.97C-583.39 2528.94 -517.107 2485.16 -473.324 2412.19C-447.784 2369.62 -449 2337.39 -483.053 2297.87C-567.579 2200.57 -677.645 2167.73 -799.265 2154.96C-1084.46 2124.56 -1373.31 2106.92 -1600.74 1894.7C-1642.7 1855.78 -1671.89 1822.33 -1684.05 1762.13C-1697.43 1694.63 -1686.48 1635.65 -1667.63 1575.44C-1642.7 1496.39 -1629.32 1416.12 -1619.59 1334.03C-1611.08 1262.27 -1620.81 1183.22 -1583.11 1119.37C-1461.49 911.4 -1291.22 763.024 -1049.19 710.119C-975.006 693.701 -903.25 711.336 -833.926 736.268C-784.062 754.511 -796.224 808.024 -781.022 845.726C-763.387 889.509 -728.725 910.184 -683.726 919.306C-602.241 935.724 -520.755 940.589 -438.054 936.941C-392.447 935.116 -348.055 938.157 -302.448 950.927C-239.206 969.17 -209.408 1009.3 -210.625 1070.11C-211.233 1129.71 -250.759 1166.19 -304.88 1179.57C-354.744 1191.73 -407.041 1199.03 -458.729 1199.03C-678.861 1197.82 -898.385 1209.98 -1116.08 1240.99C-1196.96 1252.54 -1286.96 1261.06 -1341.69 1341.33C-1420.74 1457.47 -1386.69 1617.4 -1262.03 1712.27C-1155.61 1793.75 -1029.13 1821.73 -901.426 1829.63C-739.671 1839.97 -692.24 1769.43 -739.063 1615.58C-753.658 1566.93 -743.32 1545.04 -687.983 1537.13C-543.255 1516.46 -402.176 1518.89 -265.962 1579.7C-201.503 1608.28 -134.004 1625.92 -64.6808 1637.47C212.004 1684.29 478.96 1767 747.132 1850.91C1061.52 1949.43 1374.08 1934.83 1660.5 1745.1C1818.6 1640.51 1881.85 1485.45 1886.71 1303.02C1887.32 1275.04 1887.32 1242.81 1867.86 1216.06C1821.64 1152.21 1783.33 1084.1 1734.69 1020.86C1629.48 883.428 1564.42 719.849 1572.32 547.149C1581.44 350.733 1506.04 221.208 1333.95 139.114C1229.35 89.2502 1130.84 27.8321 1034.15 -36.0183C1003.75 -56.0856 973.345 -81.0177 930.17 -68.2476C1068.82 -11.0862 1162.46 111.142 1289.56 179.857C1469.55 277.153 1480.5 446.205 1478.07 610.391C1476.85 710.728 1495.09 795.862 1543.74 877.347C1598.47 969.17 1655.63 1059.17 1698.2 1157.68C1740.16 1254.98 1740.16 1351.06 1694.55 1449.57C1614.28 1623.48 1309.62 1815.64 1118.07 1808.96C989.763 1804.7 860.238 1791.32 739.227 1751.19C447.947 1655.11 149.978 1597.34 -152.855 1559.63C-199.679 1553.55 -241.03 1538.96 -278.732 1510.38C-409.473 1409.43 -691.631 1391.19 -831.494 1472.07C-872.237 1495.78 -885.615 1520.72 -867.98 1568.76C-832.711 1663.62 -849.737 1687.34 -950.074 1697.06C-992.641 1701.32 -1035.82 1703.75 -1078.38 1700.11C-1133.11 1695.24 -1184.8 1671.52 -1195.75 1614.97C-1207.91 1552.95 -1218.25 1489.09 -1204.26 1424.03C-1186.02 1337.68 -1136.15 1292.07 -1047.37 1286.6C-931.831 1278.69 -815.684 1276.87 -699.537 1275.04C-512.242 1272 -321.299 1297.54 -140.085 1217.27C-90.8292 1195.38 -35.492 1187.48 -30.0191 1126.06C-23.9381 1062.21 -47.6542 1009.3 -109.68 974.035C-214.881 914.441 -324.947 882.212 -446.567 870.658C-574.876 857.888 -709.266 838.428 -773.117 695.525C-787.103 664.512 -820.548 660.255 -850.345 652.958C-999.33 615.864 -1142.23 640.188 -1278.45 702.214C-1560.61 830.523 -1653.64 1101.13 -1758.85 1360.18C-1785.6 1426.46 -1791.08 1502.47 -1820.26 1567.54C-1884.11 1708.62 -1881.07 1911.12 -1685.87 1986.52C-1431.69 2084.42 -1170.81 2152.53 -904.466 2204.83C-847.913 2215.77 -791.36 2230.37 -737.239 2250.44C-706.834 2261.99 -660.618 2262.6 -661.227 2314.89C-661.227 2368.41 -700.753 2387.26 -740.279 2404.89C-855.21 2455.97 -972.573 2441.38 -1077.77 2389.69C-1264.46 2298.48 -1459.66 2272.93 -1663.37 2266.85C-1787.43 2263.21 -1886.55 2210.3 -1935.19 2086.86C-1949.79 2049.76 -1974.11 2019.36 -1999.65 1988.34C-2068.98 1904.43 -2171.75 1875.85 -2258.7 1820.51C-2411.94 1722.6 -2436.27 1672.13 -2339.58 1517.68C-2278.16 1419.77 -2294.58 1334.03 -2323.77 1242.21C-2345.66 1166.8 -2382.15 1101.74 -2449.04 1060.99ZM126.262 2103.88C230.855 2168.34 319.03 2245.57 398.083 2334.35C454.636 2397.6 529.432 2437.12 609.701 2455.36C783.009 2494.28 947.196 2559.96 1110.78 2625.63C1194.69 2659.69 1259.76 2727.19 1276.79 2819.01C1299.29 2941.84 1305.37 3064.68 1251.85 3185.69C1101.05 3525.01 905.846 3815.07 506.932 3892.91C433.352 3907.51 381.056 3947.64 360.989 4026.09C346.394 4082.64 324.502 4139.8 282.544 4179.93C162.748 4295.47 119.573 4448.71 68.4926 4598.31C53.8982 4641.48 38.6959 4685.87 5.25045 4718.71C-193.598 4914.52 -439.27 5047.69 -691.632 5140.73C-951.29 5236.81 -1227.37 5267.82 -1499.19 5099.38C-1672.5 4992.35 -1817.22 4896.28 -1873.17 4684.66C-1912.7 4533.85 -2053.77 4447.5 -2176 4355.68C-2063.5 4491.28 -1964.38 4632.36 -1916.95 4803.84C-1884.72 4919.38 -1816.01 5014.25 -1730.87 5092.69C-1624.46 5190.6 -1527.16 5307.96 -1372.7 5333.5C-990.208 5396.13 -643.592 5295.19 -316.434 5101.2C-147.991 5001.48 -7.51971 4862.22 165.181 4770.4C252.747 4724.18 324.503 4667.63 301.395 4550.27C297.746 4531.42 308.084 4507.7 317.205 4489.46C394.434 4338.65 477.744 4187.23 636.458 4111.83C820.104 4024.26 947.196 3881.97 1071.86 3730.55C1266.45 3494 1434.28 3247.11 1424.55 2921.78C1421.51 2814.14 1425.16 2697.39 1320.57 2634.75C1166.72 2542.93 1011.05 2452.93 822.536 2445.63C714.294 2441.38 606.053 2404.28 530.04 2329.49C440.65 2241.31 333.624 2187.19 230.855 2122.73C201.667 2103.88 170.653 2085.03 126.262 2103.88ZM795.171 1956.72C920.44 2019.97 1050.57 2055.84 1186.18 2078.95C1318.75 2101.45 1439.76 2145.23 1496.31 2286.92C1521.24 2348.95 1551.65 2409.15 1584.48 2467.53C1630.7 2549.62 1639.21 2632.32 1614.89 2722.93C1587.52 2823.26 1564.42 2929.07 1576.58 3030.02C1608.2 3293.93 1529.15 3521.36 1392.32 3739.67C1329.08 3841.22 1250.03 3921.49 1150.3 3984.13C1107.13 4011.49 1054.83 4016.96 1011.05 4048.58C851.117 4163.52 728.889 4318.58 581.121 4445.07C465.582 4543.58 389.569 4662.16 351.259 4800.2C306.259 4962.56 197.41 5064.11 77.0061 5165.06C-47.0462 5269.04 -205.76 5309.78 -333.461 5402.82C-529.877 5545.73 -751.833 5625.39 -982.911 5688.02C-1146.49 5732.41 -1310.07 5717.21 -1473.04 5688.02C-1514.39 5680.72 -1556.35 5667.34 -1585.54 5632.07C-1765.54 5416.2 -1984.45 5230.12 -2051.34 4932.76C-2084.18 4788.03 -2272.69 4744.86 -2397.96 4834.86C-2443.57 4867.69 -2510.46 4899.92 -2506.81 4960.73C-2502.55 5027.02 -2425.93 5033.71 -2375.46 5058.64C-2362.69 5064.72 -2348.09 5067.76 -2307.96 5080.53C-2359.65 5031.27 -2393.09 5002.08 -2423.5 4970.46C-2449.04 4943.71 -2451.47 4918.17 -2413.16 4897.49C-2328.03 4852.49 -2214.31 4878.64 -2160.8 4961.34C-2132.83 5004.52 -2108.5 5051.34 -2090.26 5099.38C-2017.9 5295.19 -1892.02 5455.73 -1755.81 5608.97C-1692.56 5680.72 -1617.77 5744.57 -1519.86 5757.95C-1299.12 5788.36 -1077.77 5808.42 -858.859 5734.84C-592.511 5644.85 -338.326 5525.66 -83.5323 5408.9C143.897 5304.92 298.962 5112.15 458.892 4928.5C468.622 4916.95 474.703 4902.36 482 4888.98C540.986 4782.56 596.931 4674.93 659.565 4570.94C773.888 4381.22 911.318 4202.43 1101.05 4089.94C1298.68 3973.18 1453.74 3829.06 1548 3624.13C1623.4 3459.34 1700.02 3292.72 1662.32 3099.95C1647.73 3023.33 1640.43 2940.63 1664.75 2864.01C1724.35 2673.06 1680.56 2488.2 1635.56 2305.16C1613.67 2215.17 1548.61 2152.53 1457.39 2111.79C1245.17 2016.93 1015.3 2006.59 795.171 1956.72ZM1414.22 2527.12C1355.23 2394.55 1257.33 2306.38 1119.29 2265.64C1078.55 2253.48 1035.98 2243.14 1004.36 2211.52C880.305 2085.64 716.727 2053.41 553.148 2042.47C408.42 2032.74 277.679 2023.01 225.991 1858.21C223.558 1850.31 214.437 1844.83 207.14 1838.75C25.926 1681.86 -245.894 1706.19 -396.095 1896.52C-450.824 1965.84 -481.229 2043.68 -426.5 2131.25C-353.528 2248 -329.204 2386.65 -265.962 2508.27C-250.76 2537.46 -245.286 2569.69 -293.934 2573.94C-483.053 2590.97 -663.659 2651.78 -849.737 2678.54C-992.033 2699.21 -1131.29 2725.97 -1269.33 2761.85C-1367.84 2787.39 -1430.47 2861.57 -1448.72 2969.82C-1391.55 2836.03 -1272.37 2806.24 -1148.31 2782.52C-1016.36 2757.59 -880.75 2754.55 -752.441 2713.2C-600.417 2663.94 -447.175 2659.69 -291.502 2690.09C-232.516 2701.64 -174.747 2696.17 -121.234 2673.06C-58.5998 2645.7 -40.9649 2576.38 -93.8696 2543.54C-173.531 2493.67 -214.274 2415.84 -265.962 2345.3C-370.555 2201.18 -351.096 2074.69 -210.625 1971.32C-179.004 1948.21 -144.95 1926.32 -118.802 1897.13C-48.8704 1818.68 61.8036 1827.81 108.019 1923.89C155.451 2023.61 229.639 2077.73 338.489 2095.37C411.461 2106.92 483.217 2112.4 556.797 2113C641.323 2113.61 727.064 2132.46 782.401 2195.1C837.739 2257.12 903.413 2291.79 978.21 2300.91C1130.84 2319.76 1254.29 2387.87 1361.92 2492.46C1376.51 2505.84 1396.58 2515.57 1414.22 2527.12ZM-46.4378 -662.361C-136.436 -626.483 -88.3965 -574.794 -75.6265 -517.025C-42.7891 -366.216 -64.6808 -212.367 -73.8023 -59.7342C-82.3157 88.0339 -161.977 167.695 -311.569 163.438C-372.379 161.614 -433.189 150.06 -493.999 151.884C-611.362 154.925 -723.861 176.816 -807.778 271.68C-925.75 404.854 -1092.98 457.758 -1257.77 362.287C-1311.89 331.274 -1370.88 312.422 -1433.51 328.233C-1549.05 358.03 -1659.73 397.556 -1743.04 491.812C-1831.82 592.756 -1946.14 654.174 -2075.06 688.836C-2148.64 708.295 -2221.61 728.97 -2295.19 749.646C-2126.75 747.822 -1819.66 648.701 -1668.24 551.406C-1501.01 444.38 -1319.8 420.664 -1134.33 470.528C-964.668 516.136 -823.589 466.88 -706.226 356.814C-610.754 267.423 -510.418 242.491 -388.19 264.991C-352.312 271.68 -315.218 279.585 -279.34 275.937C-31.8433 251.005 147.546 119.047 28.9663 -161.287C11.9395 -201.421 10.1153 -250.677 11.9396 -295.069C18.0206 -421.553 16.1965 -544.389 -46.4378 -662.361ZM-71.3701 1371.12C-61.0325 1391.19 -44.0055 1386.33 -29.4111 1389.37C254.571 1447.74 561.053 1423.42 809.158 1616.8C824.361 1628.35 847.468 1645.38 865.711 1621.66C877.265 1605.85 868.752 1587 855.373 1571.8C841.995 1556.59 818.279 1542.61 843.82 1519.5C861.454 1503.69 883.954 1502.47 904.021 1508.55C927.129 1515.24 950.845 1540.78 969.088 1536.53C1002.53 1529.23 1099.83 1605.24 1057.87 1478.76C1051.79 1460.51 1070.03 1455.04 1084.02 1448.96C1126.59 1430.11 1166.72 1437.41 1208.07 1453.83C1250.64 1470.85 1292.6 1489.7 1340.64 1475.11C1376.51 1464.16 1403.27 1449.57 1356.45 1418.56C1305.98 1385.11 1309.62 1351.06 1340.64 1304.23C1372.26 1257.41 1374.69 1197.82 1335.77 1158.9C1235.44 1058.56 1242.73 949.103 1289.56 830.523C1320.57 752.079 1278 701.606 1217.8 664.512C1167.94 633.499 1113.21 610.999 1060.91 584.851C1055.44 590.932 1049.97 597.621 1044.49 603.702C1068.82 621.337 1094.36 638.972 1118.07 657.215C1206.25 725.93 1230.57 810.456 1184.96 915.049C1153.95 986.197 1155.17 1057.95 1194.69 1126.06C1220.84 1171.06 1208.07 1203.9 1170.98 1237.95C1118.07 1286.6 1062.13 1320.65 988.547 1331.6C898.548 1344.98 808.55 1365.65 721.592 1391.8C611.526 1424.64 505.108 1418.56 398.083 1385.72C243.017 1338.89 87.3438 1336.46 -71.3701 1371.12ZM-661.835 5927C-579.133 5903.29 -536.566 5869.84 -501.905 5818.76C-449.608 5740.32 -382.109 5687.41 -279.34 5678.29C-134.612 5665.52 7.68259 5629.64 101.938 5506.81C179.167 5405.25 277.071 5357.21 399.907 5334.72C477.135 5320.12 557.404 5273.9 573.215 5192.42C588.418 5115.19 627.944 5082.96 692.403 5061.68C738.618 5046.48 784.834 5032.49 831.049 5016.07C937.467 4978.98 1000.1 4893.84 1008.01 4781.34C1011.65 4731.48 1045.1 4705.33 1089.49 4696.21C1139.96 4685.87 1191.65 4679.18 1243.34 4674.93C1375.3 4664.59 1476.85 4639.05 1543.74 4593.44C1393.54 4626.89 1249.42 4616.55 1104.09 4586.14C982.466 4560.6 862.062 4654.86 867.535 4763.1C876.049 4931.55 875.44 4929.11 710.037 4969.86C631.593 4988.71 537.945 4994.79 503.284 5084.18C460.109 5195.46 383.488 5249.58 268.557 5275.12C190.721 5292.15 94.641 5312.82 61.8036 5394.31C-5.69545 5563.36 -141.91 5609.58 -300.016 5621.74C-370.555 5627.21 -434.406 5643.63 -480.621 5696.53C-540.823 5764.64 -593.119 5838.83 -661.835 5927ZM1999.21 5695.93C1924.41 5738.49 1869.07 5779.84 1807.66 5802.95C1531.58 5906.33 1296.85 6070.51 1087.67 6276.05C1030.51 6332 958.75 6372.74 880.305 6386.73C754.429 6409.83 626.728 6419.56 498.419 6426.86C200.45 6443.28 -81.0997 6358.75 -365.69 6293.69C-468.459 6269.97 -877.102 6250.51 -959.195 6268.76C-917.237 6275.44 -878.318 6284.57 -838.791 6286.39C-511.634 6300.98 -192.382 6358.75 118.965 6462.13C258.22 6508.35 405.38 6525.37 552.54 6500.44C629.16 6487.06 705.781 6480.98 779.969 6496.18C925.304 6525.98 1034.76 6476.12 1129.63 6369.09C1309.02 6165.99 1514.55 5995.72 1760.23 5877.14C1845.97 5835.79 1923.8 5783.49 1999.21 5695.93ZM-220.355 3627.17C-132.18 3702.58 -45.83 3767.03 57.5469 3805.35C89.7762 3817.51 125.046 3822.37 154.843 3803.52C213.22 3765.82 267.341 3777.37 328.151 3799.87C489.297 3859.47 637.674 3801.09 719.767 3652.1C739.226 3616.83 761.726 3573.05 804.293 3577.31C941.723 3591.9 939.899 3438.66 1030.51 3397.92C1043.88 3391.84 1040.84 3360.82 1027.47 3347.45C942.94 3260.49 993.412 3217.92 1077.94 3183.26C1088.28 3179 1103.48 3168.06 1104.69 3159.54C1113.82 3048.26 1134.49 2935.15 1122.33 2825.7C1115.03 2761.85 1027.47 2745.43 965.439 2733.27C869.36 2714.42 788.482 2670.63 713.078 2611.65C693.011 2595.84 674.768 2572.12 632.201 2581.24C725.848 2672.46 793.955 2786.78 921.048 2819.62C1137.53 2875.56 866.927 3014.21 971.52 3089.61C992.196 3104.21 967.264 3126.1 945.98 3135.22C931.994 3141.3 918.008 3147.99 905.846 3157.11C879.697 3177.18 857.806 3216.7 873.616 3236.16C943.548 3320.69 901.589 3374.81 848.076 3447.78C815.847 3492.17 793.955 3528.66 738.01 3539.61C707.605 3545.69 672.335 3546.29 659.565 3590.08C622.471 3718.39 584.161 3745.14 452.811 3731.16C370.718 3722.04 285.584 3694.06 207.748 3719C70.317 3763.39 -42.1815 3720.21 -153.464 3649.06C-171.099 3638.12 -185.693 3618.66 -220.355 3627.17ZM1081.59 292.355C1066.99 243.707 1028.07 237.626 988.547 230.329C900.981 215.127 818.279 235.802 736.794 263.167C603.012 308.166 575.648 407.286 675.984 505.19C731.929 559.919 741.659 617.08 710.038 677.89C665.038 763.632 677.808 829.307 738.618 902.279C801.861 978.291 781.794 1036.67 692.403 1083.49C557.405 1153.42 338.489 1116.94 224.774 1003.22C166.397 945.454 104.979 894.374 23.4936 872.482C72.1415 924.779 126.871 967.954 170.654 1028.16C332.408 1249.5 638.282 1322.48 885.17 1155.86C957.534 1107.21 976.385 1047.61 925.913 969.778C892.468 918.09 857.806 868.834 809.766 829.307C762.334 789.781 749.564 738.092 787.875 692.485C859.63 606.743 827.401 535.595 770.24 463.231C702.132 376.273 713.078 341.611 817.671 306.342C904.021 277.153 992.804 300.261 1081.59 292.355ZM-2137.08 -459.864C-2151.07 -537.092 -2119.45 -565.673 -2070.8 -589.997C-1992.96 -628.915 -1992.36 -669.658 -2061.68 -724.995C-2145.6 -791.886 -2359.04 -773.643 -2425.93 -687.901C-2472.15 -628.307 -2514.1 -566.889 -2483.09 -479.323C-2437.48 -349.798 -2312.22 -270.137 -2149.85 -284.731C-1964.99 -301.758 -1807.49 -387.5 -1660.94 -494.525C-1509.52 -605.807 -1361.76 -724.387 -1158.04 -718.914C-1156.22 -718.914 -1154.4 -728.035 -1147.71 -743.846C-1215.2 -756.616 -1280.88 -742.63 -1345.34 -743.846C-1468.17 -746.278 -1567.9 -706.144 -1652.43 -612.497C-1706.55 -552.295 -1774.66 -501.822 -1842.16 -456.215C-1974.72 -366.216 -2118.23 -352.838 -2268.43 -412.432C-2334.11 -438.58 -2370.59 -482.363 -2354.78 -552.903C-2338.97 -622.834 -2297.01 -673.915 -2219.79 -682.428C-2190.6 -685.468 -2153.5 -689.725 -2135.87 -660.536C-2120.06 -634.388 -2142.56 -608.24 -2155.93 -585.132C-2178.43 -548.646 -2206.41 -513.376 -2137.08 -459.864ZM-2135.26 4263.24C-2007.56 4350.81 -1900.53 4457.23 -1801.41 4574.59C-1733.91 4654.86 -1640.27 4696.82 -1535.07 4722.97C-1378.78 4762.49 -1229.19 4748.51 -1074.13 4716.89C-909.939 4682.83 -741.495 4676.14 -574.268 4706.55C-543.255 4712.02 -511.634 4725.4 -506.769 4759.45C-501.296 4798.98 -539.607 4805.67 -566.363 4816.61C-594.336 4828.17 -623.524 4839.72 -653.321 4843.98C-958.587 4886.55 -1268.72 4895.06 -1562.43 4970.46C-1504.66 4968.64 -1440.2 4999.65 -1373.92 4966.81C-1283.31 4922.42 -1182.98 4918.17 -1086.9 4925.46C-892.913 4939.45 -704.402 4930.94 -520.756 4859.18C-451.432 4832.42 -375.42 4814.79 -355.961 4733.91C-344.407 4687.09 -458.121 4621.41 -552.985 4614.12C-568.187 4612.9 -583.39 4612.29 -598.592 4614.12C-686.767 4622.63 -774.941 4629.93 -862.507 4640.27C-1035.21 4660.33 -1206.69 4693.78 -1381.82 4686.48C-1534.46 4680.4 -1676.14 4648.78 -1775.87 4513.78C-1865.87 4391.55 -1988.1 4308.24 -2135.26 4263.24ZM-605.281 533.163C-532.917 522.825 -476.364 510.663 -418.595 507.622C-354.136 504.582 -280.556 511.879 -254.408 576.338C-227.652 642.012 -179.003 676.674 -128.531 713.768C11.9397 816.537 130.519 812.28 261.26 702.822C361.597 618.905 388.961 470.528 313.557 337.355C277.071 272.896 292.882 233.978 329.368 182.289C381.664 108.101 440.042 27.8321 438.825 -63.3828C437.001 -196.557 337.881 -304.19 325.111 -438.58C299.571 -404.526 321.462 -377.77 325.111 -349.798C342.138 -208.719 402.339 -47.5722 298.963 64.9262C177.951 196.884 160.924 323.368 199.234 484.515C229.031 610.999 125.046 702.214 -5.69509 693.701C-112.112 687.012 -147.991 596.405 -210.017 538.636C-322.515 433.434 -467.851 423.705 -605.281 533.163ZM-1540.54 778.835C-1544.19 772.754 -1548.44 766.065 -1552.09 759.984C-1600.13 784.916 -1649.39 807.416 -1695.6 834.78C-1746.68 864.577 -1802.63 879.779 -1860.4 884.644C-1946.14 891.333 -2028.23 913.833 -2110.33 935.724C-2164.45 950.319 -2222.22 962.481 -2223.43 1033.63C-2224.04 1105.38 -2199.11 1174.71 -2126.14 1193.56C-2024.59 1220.31 -2047.69 1263.49 -2092.08 1322.48C-2110.33 1346.8 -2124.31 1374.16 -2139.52 1400.31C-2212.49 1525.58 -2203.97 1596.73 -2111.54 1697.06C-2139.52 1411.87 -1940.67 1239.77 -1756.41 1058.56C-1791.68 1065.25 -1822.09 1076.8 -1852.49 1088.36C-1901.14 1106.6 -1949.79 1125.45 -2002.69 1124.24C-2029.45 1123.63 -2063.5 1126.06 -2071.41 1093.83C-2078.71 1064.64 -2053.77 1040.32 -2029.45 1029.37C-1966.21 1000.18 -1902.97 966.129 -1836.07 950.319C-1717.49 922.346 -1636.62 839.645 -1540.54 778.835ZM1872.72 801.335C1993.74 786.74 2077.65 737.484 2086.77 606.743C2090.42 553.838 2126.3 527.082 2175.56 515.528C2226.03 503.974 2250.96 528.906 2275.29 572.081C2326.37 663.296 2406.03 700.998 2496.03 678.498C2558.05 662.688 2610.96 629.851 2601.23 554.446C2595.75 511.879 2574.47 467.488 2627.37 443.772C2675.41 422.489 2717.37 440.732 2748.39 480.866C2803.72 553.23 2864.53 532.555 2923.52 488.772C2992.84 437.083 3012.91 351.341 2973.99 290.531C2912.57 447.421 2874.87 458.975 2722.85 370.8C2652.92 330.058 2593.32 376.273 2531.9 397.557C2482.65 414.583 2491.16 458.975 2492.38 498.501C2494.2 544.717 2501.5 598.837 2441.3 609.783C2385.35 620.121 2348.87 578.77 2331.23 531.338C2305.69 461.407 2256.43 432.218 2189.54 446.813C2123.26 461.407 2046.64 475.393 2033.26 562.96C2016.84 668.161 1983.4 759.376 1872.72 801.335ZM2244.27 8129.54C2293.53 8195.21 2337.31 8256.63 2431.57 8229.88C2459.54 8221.97 2491.77 8232.92 2506.97 8194.61C2517.92 8168.46 2539.2 8182.44 2561.09 8186.09C2739.87 8216.5 2834.74 8198.25 2919.87 8056.57C3014.13 7900.29 3050 7726.37 3065.21 7546.98C3067.64 7519.62 3085.27 7471.58 3037.23 7466.1C2991.63 7460.63 2989.19 7503.8 2987.37 7537.86C2980.07 7709.95 2940.55 7868.06 2795.82 7981.16C2775.14 7997.58 2766.63 8017.04 2786.09 8044.41C2810.41 8078.46 2820.75 8127.11 2779.4 8145.96C2741.09 8163.59 2684.54 8180.62 2659 8111.9C2644.4 8072.99 2594.54 8099.74 2593.93 8105.82C2582.38 8191.57 2530.08 8133.8 2507.58 8125.89C2418.19 8096.09 2333.05 8083.32 2244.27 8129.54ZM3172.84 3898.38C3029.33 3917.84 2885.21 3954.94 2740.48 3933.65C2538.59 3904.47 2337.92 3875.88 2133.6 3916.02C2103.19 3922.1 2068.53 3903.86 2035.09 3900.21C1954.21 3892.3 1880.02 3852.78 1793.06 3869.2C1594.21 3905.68 1419.08 3988.99 1264.02 4117.3C1344.89 4085.07 1422.12 4045.54 1501.78 4010.88C1608.81 3964.67 1717.05 3932.44 1837.45 3956.15C1929.88 3975 2023.53 3979.87 2118.4 3959.8C2312.99 3918.45 2510.01 3936.09 2699.74 3973.79C2873.66 4009.67 3022.03 3968.92 3172.84 3898.38ZM892.467 5552.41C1004.36 5570.05 1105.3 5557.28 1184.36 5467.28C1209.29 5439.31 1245.16 5428.97 1281.04 5418.63C1386.85 5388.23 1450.09 5272.08 1573.54 5273.91C1582.66 5273.91 1591.17 5244.11 1602.12 5230.12C1656.85 5162.62 1718.87 5069.58 1791.24 5059.25C1941.44 5038.57 2008.33 4911.48 2124.48 4853.71C2058.19 4857.36 1999.82 4876.21 1953.6 4926.68C1918.33 4964.99 1875.76 4988.71 1821.64 5000.87C1695.16 5028.84 1560.16 5048.3 1504.22 5194.85C1493.88 5222.22 1465.91 5231.95 1439.76 5241.07C1392.93 5257.49 1358.88 5296.4 1318.14 5317.69C1174.02 5392.48 1082.19 5561.54 892.467 5552.41ZM1102.26 7846.16C1074.9 7813.33 1048.75 7824.88 1026.25 7823.67C775.104 7808.46 530.648 7771.98 319.029 7618.74C263.692 7578.6 193.761 7573.74 131.127 7551.84C116.533 7546.98 100.114 7549.41 90.9922 7564.61C83.0869 7578.6 81.2627 7596.84 96.4652 7605.36C194.369 7661.91 265.517 7757.38 390.177 7778.06C547.675 7804.81 691.794 7879 863.887 7866.84C938.075 7860.76 1015.91 7863.8 1102.26 7846.16ZM2653.52 3864.33C2565.96 3840.62 2479 3814.47 2390.22 3795.01C2325.15 3781.02 2257.65 3776.16 2191.37 3767.64C2001.64 3742.71 1807.05 3557.24 1778.47 3374.2C1774.82 3351.7 1783.33 3317.04 1751.71 3314.61C1724.35 3312.18 1717.05 3345.62 1708.54 3367.51C1650.16 3520.15 1786.37 3764.6 1956.03 3790.75C2187.11 3826.02 2424.88 3802.3 2653.52 3864.33ZM1873.94 7333.54C1792.45 7352.39 1784.55 7356.04 1687.25 7462.45C1636.78 7517.79 1582.05 7542.12 1508.47 7515.36C1471.38 7501.98 1433.68 7488.6 1395.37 7480.7C1321.18 7466.1 1249.42 7464.89 1198.95 7537.25C1106.52 7669.21 1041.45 7673.46 923.48 7556.71C895.508 7528.74 871.792 7495.9 834.09 7480.09C817.671 7473.4 796.996 7468.53 782.401 7483.74C764.766 7502.59 783.009 7515.97 795.171 7528.74C824.36 7559.75 851.725 7593.2 882.738 7622.38C983.682 7717.86 1146.65 7721.5 1217.19 7631.51C1305.97 7518.4 1304.76 7520.83 1448.27 7565.83C1522.46 7588.94 1607.59 7627.86 1668.4 7550.02C1730.43 7470.36 1776.64 7379.75 1873.94 7333.54ZM495.378 6997.87C754.429 7017.33 1003.14 7039.83 1253.07 7053.2C1346.11 7058.07 1447.66 7033.14 1496.92 6954.69C1535.23 6893.88 1462.26 6835.5 1419.69 6785.03C1417.87 6782.6 1411.78 6784.42 1406.92 6783.82C1454.35 6909.69 1434.28 6949.22 1301.72 6970.5C1065.78 7008.2 833.482 6960.77 601.188 6934.02C544.026 6927.33 515.446 6938.27 495.378 6997.87ZM1852.66 3281.16C1945.09 3420.42 1989.48 3603.46 2182.85 3655.14C2337.31 3696.5 2497.85 3707.44 2651.09 3755.48C2571.43 3697.1 2488.12 3651.5 2394.47 3622.92C2184.68 3557.24 1971.24 3495.21 1852.66 3281.16ZM-1603.78 3528.05C-1643.92 3531.7 -1694.39 3529.27 -1698.64 3570.62C-1703.51 3618.05 -1650.6 3613.79 -1616.55 3621.09C-1607.43 3622.92 -1598.31 3624.13 -1589.19 3624.13C-1502.23 3619.87 -1451.76 3658.79 -1438.38 3746.36C-1433.51 3779.2 -1424.39 3812.64 -1393.99 3833.32C-1370.27 3849.74 -1344.12 3860.68 -1318.58 3839.4C-1291.22 3816.29 -1314.33 3795.62 -1327.1 3776.76C-1369.05 3717.17 -1409.19 3655.75 -1455.4 3599.81C-1493.71 3552.98 -1547.23 3529.88 -1603.78 3528.05ZM-301.84 4122.16C-461.162 4030.95 -798.657 4054.67 -940.952 4162.3C-731.766 4113.04 -520.755 4134.33 -301.84 4122.16ZM167.613 7394.35C348.218 7429.62 518.486 7561.57 739.226 7466.1C534.905 7439.95 351.259 7417.45 167.613 7394.35ZM3471.42 8516.9C3529.19 8400.14 3511.55 8366.7 3405.74 8345.41C3343.11 8333.25 3285.34 8347.24 3225.14 8355.14C3203.24 8358.18 3164.93 8336.9 3164.93 8371.56C3164.93 8414.74 3206.29 8390.41 3230 8391.63C3243.99 8392.24 3258.58 8382.51 3273.18 8377.64C3417.3 8327.78 3464.12 8356.97 3471.42 8516.9ZM-1099.67 6673.14C-1104.53 6673.14 -1110 6673.14 -1114.87 6673.14C-1122.17 6723.61 -1131.29 6774.09 -1136.15 6825.17C-1137.98 6850.1 -1143.45 6887.19 -1100.27 6883.54C-1062.57 6879.9 -1075.95 6846.45 -1078.38 6825.17C-1083.25 6774.09 -1092.37 6723.61 -1099.67 6673.14ZM3740.2 8305.89C3734.72 8271.23 3724.39 8240.21 3681.21 8240.82C3659.32 8240.82 3632.56 8247.51 3635.6 8272.44C3639.86 8312.58 3671.48 8332.64 3709.79 8338.73C3731.68 8342.37 3742.02 8327.78 3740.2 8305.89Z" fill="#676767"/>
<path d="M3935.4 -800.398C3937.22 -757.223 3914.72 -744.453 3873.37 -741.413C3344.33 -704.927 2816.49 -639.252 2283.8 -676.954C2166.44 -685.468 2046.64 -664.792 1927.45 -663.576C1763.27 -661.752 1610.63 -721.346 1449.49 -731.683C1295.64 -741.413 1143.01 -786.412 986.724 -745.67C944.157 -734.724 905.847 -720.129 871.185 -693.981C838.348 -669.049 783.619 -642.901 818.889 -597.901C846.861 -562.632 919.833 -540.74 951.454 -579.05C1074.29 -724.386 1223.27 -653.847 1357.06 -628.306C1520.64 -597.293 1679.96 -571.145 1845.97 -598.51C1896.44 -607.023 1949.35 -602.158 2001.64 -603.374C2315.42 -610.063 2630.42 -600.942 2942.37 -627.698C3237.91 -652.63 3534.05 -636.212 3828.37 -674.522C3859.39 -678.779 3898.3 -689.724 3923.24 -659.927C3941.48 -638.036 3937.22 -605.807 3929.32 -580.875C3917.76 -544.997 3883.1 -556.551 3858.17 -558.983C3585.74 -585.739 3313.92 -553.51 3045.14 -532.835C2704.6 -506.078 2364.07 -482.363 2022.93 -469.592C1828.94 -462.295 1633.74 -465.944 1439.15 -478.714C1776.04 -451.349 2111.1 -379.594 2451.03 -412.431C2911.36 -456.822 3370.47 -446.485 3827.76 -376.553C3864.86 -371.08 3925.06 -393.58 3935.4 -321.824C3949.99 -227.569 3937.22 -212.366 3846.01 -238.515C3645.33 -296.284 3438.58 -328.513 3231.22 -318.784C3010.48 -309.054 2821.36 -210.542 2642.58 -76.1521C2344.61 147.02 2137.86 250.397 1806.44 103.845C1619.15 21.1437 1450.1 -95.6113 1259.76 -170.408C1137.53 -218.447 1031.72 -296.892 917.401 -358.31C849.902 -394.796 812.807 -458.647 758.687 -507.295C622.472 -630.131 454.029 -698.846 305.653 -800.399C1515.77 -800.399 2725.28 -800.398 3935.4 -800.398ZM2125.69 30.8734C2156.71 4.72509 2173.73 -12.3017 2194.41 -25.0718C2246.71 -57.301 2283.8 -105.341 2254 -160.678C2226.03 -211.15 2167.04 -236.69 2103.19 -222.096C2052.72 -210.542 2000.43 -202.637 1952.99 -183.178C1899.48 -160.678 1849.62 -164.935 1804.01 -191.691C1665.36 -273.784 1501.78 -257.366 1357.66 -315.743C1431.85 -245.204 1515.77 -200.204 1619.15 -200.813C1657.46 -200.813 1687.86 -185.61 1714.01 -154.597C1808.27 -41.4905 1863 -29.9366 1999.82 -88.9222C2022.32 -98.6518 2044.21 -109.598 2066.71 -118.111C2113.53 -135.746 2137.86 -114.462 2138.46 -68.2469C2139.07 -41.4905 2131.78 -14.7341 2125.69 30.8734Z" fill="#676767"/>
<path d="M2853.59 1951.25C2979.47 1919.02 3081.63 1890.44 3184.4 1866.72C3403.92 1816.25 3626.49 1825.37 3847.83 1849.7C3923.24 1858.21 3973.1 1985.3 3932.97 2047.94C3918.98 2069.83 3895.27 2063.14 3874.59 2064.36C3739.59 2068.61 3606.42 2057.67 3473.24 2036.99C3398.45 2025.44 3321.83 2015.71 3246.42 2040.64C3180.14 2062.53 3148.52 2102.06 3183.18 2171.99C3214.19 2233.41 3210.55 2292.39 3183.79 2356.85C3144.26 2451.11 3165.55 2521.65 3260.41 2596.44C3198.99 2447.46 3312.71 2348.95 3316.96 2223.68C3319.39 2152.53 3448.31 2092.33 3532.84 2117.87C3653.85 2154.36 3773.04 2185.98 3899.52 2145.84C3928.71 2136.72 3937.22 2154.36 3936.01 2180.5C3933.58 2240.1 3938.44 2295.43 3894.66 2351.38C3791.89 2483.95 3808.31 2636.58 3853.91 2786.17C3897.09 2928.47 3954.86 3065.29 3925.67 3221.57C3897.09 3372.38 3812.56 3478.19 3684.25 3546.9C3472.64 3660.62 3244.6 3686.16 3008.66 3653.32C2956.97 3646.02 2905.89 3636.29 2854.2 3633.25C2727.71 3625.96 2652.92 3559.67 2604.27 3444.74C2571.43 3366.91 2485.08 3345.01 2411.5 3315.83C2363.46 3296.97 2311.17 3290.29 2262.52 3273.26C2108.67 3219.75 2085.56 3082.32 2164.61 2968.6C2185.29 2938.8 2207.79 2909.62 2232.72 2882.86C2336.71 2770.97 2339.75 2615.3 2232.72 2505.23C2159.14 2426.78 2091.64 2347.73 2056.37 2242.53C1984.01 2023.61 2012.59 1860.64 2185.9 1739.63C2220.56 1715.31 2252.18 1686.73 2282.59 1656.93C2415.76 1527.41 2435.22 1435.58 2368.33 1263.49C2300.83 1091.4 2337.92 995.319 2517.31 938.765C2708.86 878.563 2907.1 842.077 3100.48 786.74C3243.38 745.998 3374.12 688.228 3420.34 520.393C3444.66 431.61 3408.18 366.544 3374.73 295.396C3322.44 184.722 3356.49 49.7241 3455.61 13.8462C3534.66 -14.7345 3619.8 -34.1936 3706.75 -22.0316C3742.63 -17.1668 3778.51 -8.6534 3813.78 1.07619C3957.9 40.6027 3987.7 157.966 3880.06 266.207C3823.51 322.761 3771.21 384.179 3737.77 455.934C3656.28 628.027 3506.69 717.417 3344.33 793.43C3184.4 867.618 3040.28 960.049 2947.85 1118.15C2871.23 1249.5 2921.09 1409.43 3061.56 1472.68C3312.71 1586.39 3581.49 1622.88 3852.09 1649.63C3892.22 1653.89 3931.75 1648.42 3936.62 1707.4C3941.48 1770.04 3943.91 1802.27 3858.17 1779.77C3635 1722 3406.35 1712.88 3176.49 1732.94C3038.45 1745.71 2949.06 1832.06 2853.59 1951.25ZM3873.98 2210.91C3753.58 2251.04 3749.93 2251.65 3692.77 2329.49C3661.15 2372.66 3622.23 2403.07 3573.58 2425.57C3411.22 2500.36 3388.72 2575.77 3473.85 2735.09C3601.55 2972.25 3534.05 3224.61 3249.46 3258.66C3144.87 3271.43 3121.76 3253.19 3128.45 3150.42C3136.36 3025.76 3051.83 2963.74 2933.25 3008.74C2879.13 3029.41 2825.01 3050.09 2772.11 3073.19C2727.11 3092.65 2686.36 3090.83 2657.78 3050.69C2629.81 3011.17 2623.73 2966.17 2654.74 2922.39C2688.19 2874.95 2721.03 2826.91 2756.9 2781.91C2792.17 2737.52 2794 2693.13 2784.27 2637.19C2764.81 2524.08 2686.36 2473.61 2595.15 2432.87C2534.34 2405.5 2471.1 2384.22 2415.15 2345.3C2370.15 2313.68 2348.26 2279.62 2356.17 2223.68C2363.46 2168.95 2397.52 2151.92 2444.95 2134.9C2607.92 2077.13 2683.32 1971.32 2664.47 1811.39C2651.7 1702.54 2629.2 1595.51 2655.35 1486.05C2658.39 1473.28 2659.61 1461.73 2645.62 1455.04C2632.24 1448.96 2620.08 1456.26 2614 1466.6C2566.57 1545.04 2506.37 1624.7 2521.57 1718.96C2547.72 1881.32 2477.18 1982.26 2341.57 2050.98C2274.68 2084.42 2247.92 2139.15 2234.55 2209.69C2208.4 2349.56 2326.98 2453.54 2422.45 2486.99C2479.61 2507.05 2540.42 2518 2598.19 2536.24C2702.17 2568.47 2734.4 2664.55 2667.51 2750.9C2630.42 2798.94 2583.59 2839.08 2542.85 2885.29C2466.84 2971.64 2468.66 3124.27 2544.68 3212.45C2609.13 3286.64 2684.54 3283.6 2804.94 3201.5C2809.81 3197.85 2814.67 3194.21 2820.15 3191.17C2900.41 3137.65 2943.59 3147.99 2987.37 3233.73C3011.09 3280.56 3034.8 3325.56 3086.49 3348.66C3247.64 3421.64 3479.93 3377.85 3602.77 3250.15C3734.73 3113.33 3733.51 2901.1 3599.12 2778.87C3470.81 2662.12 3496.35 2510.09 3659.93 2455.37C3743.24 2427.39 3799.19 2381.18 3817.43 2296.04C3824.12 2262.6 3851.48 2246.79 3873.98 2210.91ZM3316.35 2670.63C3285.95 2682.79 3270.14 2699.82 3273.18 2716.85C3295.68 2848.2 3203.86 2832.39 3125.41 2833.6C3079.2 2834.21 3026.29 2834.21 3003.18 2789.82C2977.03 2739.35 3002.58 2688.88 3033.59 2645.09C3042.1 2632.93 3052.44 2620.77 3063.39 2610.43C3121.15 2555.7 3112.03 2499.15 3071.9 2438.34C3037.84 2386.65 2988.59 2360.5 2933.25 2339.22C2857.24 2310.03 2840.21 2227.33 2900.41 2172.6C2931.43 2144.63 2970.95 2124.56 3009.26 2106.32C3060.34 2081.99 3099.87 2050.98 3111.42 1985.3C3009.87 2032.13 2911.97 2072.87 2818.32 2121.52C2710.69 2178.07 2697.92 2271.72 2780.62 2361.72C2797.04 2379.35 2816.5 2394.56 2835.96 2409.76C2944.81 2494.28 2954.54 2538.07 2888.25 2656.65C2865.14 2697.39 2843.86 2738.13 2861.5 2786.17C2911.36 2925.43 3150.95 3006.91 3281.08 2930.9C3345.54 2893.2 3385.68 2849.41 3344.94 2769.14C3330.34 2741.17 3326.69 2707.12 3316.35 2670.63Z" fill="#676767"/>
<path d="M3934.79 294.179C3934.79 465.055 3934.19 610.391 3935.4 755.119C3935.4 789.78 3908.04 798.294 3888.58 816.537C3783.98 913.224 3650.81 977.683 3572.37 1104.17C3522.5 1185.04 3538.92 1237.95 3631.35 1265.31C3702.5 1286.6 3776.69 1287.21 3849.66 1282.95C3916.55 1278.69 3940.87 1299.98 3940.87 1369.3C3940.87 1551.12 3943.31 1554.16 3765.74 1514.63C3622.84 1483.01 3479.93 1455.65 3334.6 1439.23C3261.02 1430.72 3194.13 1401.53 3136.36 1352.27C3063.39 1290.25 3051.83 1222.14 3097.44 1137C3172.84 994.71 3282.91 894.373 3429.46 825.658C3524.93 780.659 3618.58 727.754 3700.67 658.431C3783.98 588.499 3850.88 507.014 3877.02 398.164C3882.5 368.975 3893.44 341.003 3934.79 294.179Z" fill="#676767"/>
</g>
</g>
<defs>
<clipPath id="clip0_86_3">
<rect width="7783.67" height="3454" fill="white" transform="translate(3455 0.469971) rotate(90)"/>
</clipPath>
<clipPath id="clip1_86_3">
<rect width="9387.84" height="6631.93" fill="white" transform="translate(3947.56 -802.22) rotate(90)"/>
</clipPath>
</defs>
</svg>
