<svg width="854" height="208" viewBox="0 0 854 208" fill="none" xmlns="http://www.w3.org/2000/svg">
<path d="M389.199 58.0635H427L441.75 78.25L427 100H389.199V58.0635Z" fill="#0E6100"/>
<path d="M5.92871 145.472C9.83357 145.091 12.7384 144.424 14.6432 143.472C16.548 142.519 17.8338 140.948 18.5005 138.757C19.2624 136.567 19.6433 133.329 19.6433 129.043V75.0415C19.6433 70.6605 19.2624 67.3747 18.5005 65.1841C17.7385 62.9936 16.4052 61.4698 14.5004 60.6126C12.6908 59.6602 9.83357 58.9935 5.92871 58.6125V52.0409H53.3585C65.1683 52.0409 75.2638 54.041 83.6449 58.0411C92.0261 61.946 98.4072 67.6604 102.788 75.1844C107.169 82.7084 109.36 91.661 109.36 102.042C109.36 117.757 104.503 130.043 94.7881 138.9C85.1688 147.662 71.4542 152.043 53.6442 152.043H5.92871V145.472ZM52.2156 144.186C62.9778 144.186 71.0256 140.662 76.359 133.614C81.7878 126.471 84.5021 115.947 84.5021 102.042C84.5021 73.9463 73.3114 59.8983 50.9298 59.8983H42.0725V137.186C42.0725 141.853 44.263 144.186 48.6441 144.186H52.2156Z" fill="#0E6100"/>
<path d="M161.027 136.615C165.694 136.615 169.456 135.9 172.313 134.472C175.266 132.948 177.742 130.71 179.742 127.757L184.885 130.329C183.266 136.615 179.933 142.091 174.885 146.758C169.837 151.424 163.028 153.758 154.456 153.758C147.884 153.758 142.027 152.234 136.884 149.186C131.836 146.043 127.884 141.757 125.027 136.329C122.265 130.9 120.884 124.757 120.884 117.9C120.884 110.09 122.217 103.233 124.884 97.3278C127.646 91.3276 131.551 86.6609 136.598 83.3274C141.646 79.994 147.599 78.3273 154.456 78.3273C163.694 78.3273 171.075 81.1845 176.599 86.899C182.123 92.6134 184.885 100.899 184.885 111.757H138.313C139.075 119.852 141.456 126.043 145.456 130.329C149.551 134.519 154.742 136.615 161.027 136.615ZM151.17 85.4704C142.694 85.4704 138.313 91.8515 138.027 104.614H162.599C162.599 98.3278 161.694 93.5658 159.885 90.3276C158.17 87.0894 155.265 85.4704 151.17 85.4704Z" fill="#0E6100"/>
<path d="M269.681 140.757C268.252 144.948 265.871 148.139 262.538 150.329C259.3 152.52 255.68 153.615 251.68 153.615C243.204 153.615 238.061 149.424 236.251 141.043H235.251C233.823 145.139 231.347 148.281 227.823 150.472C224.299 152.663 220.108 153.758 215.251 153.758C209.346 153.758 204.489 152.186 200.679 149.043C196.965 145.805 195.108 141.091 195.108 134.9C195.108 128.995 197.441 124.09 202.108 120.186C206.774 116.281 213.632 113.471 222.68 111.757L235.109 109.328V106.042C235.109 96.3278 230.299 91.4705 220.68 91.4705C212.298 91.4705 206.298 95.1373 202.679 102.471L197.108 100.042C198.631 93.661 201.965 88.4704 207.108 84.4703C212.346 80.375 219.156 78.3273 227.537 78.3273C237.061 78.3273 244.156 80.8988 248.823 86.0418C253.585 91.1848 255.966 98.6612 255.966 108.471V134.614C255.966 136.614 256.395 138.186 257.252 139.329C258.109 140.377 259.3 140.9 260.823 140.9C262.728 140.9 264.395 139.853 265.824 137.757L269.681 140.757ZM226.537 142.043C230.537 142.043 233.394 140.091 235.109 136.186V115.471L229.68 116.614C220.727 118.614 216.251 123.328 216.251 130.757C216.251 134.281 217.156 137.043 218.965 139.043C220.87 141.043 223.394 142.043 226.537 142.043Z" fill="#0E6100"/>
<path d="M328.305 78.3273C329.924 78.3273 331.258 78.5178 332.305 78.8988V100.756H328.448C326.638 99.6136 324.257 99.0421 321.305 99.0421C311.209 99.0421 306.162 104.423 306.162 115.185V136.043C306.162 138.805 306.638 140.9 307.59 142.329C308.543 143.662 310.019 144.567 312.019 145.043C314.019 145.519 316.971 145.853 320.876 146.043V152.043H274.589V146.043C278.78 145.758 281.59 144.996 283.018 143.758C284.542 142.424 285.304 140.043 285.304 136.615V99.6136C285.304 95.7087 283.113 93.7563 278.732 93.7563L274.161 94.042V88.0419L297.447 80.0417H304.59V94.7563C304.59 97.0421 304.447 99.7088 304.162 102.757C303.971 105.804 303.733 108.185 303.447 109.9L304.59 110.042L306.305 99.3278C307.352 92.8515 309.781 87.7561 313.59 84.0418C317.495 80.2321 322.4 78.3273 328.305 78.3273Z" fill="#0E6100"/>
<path d="M371.172 145.472C375.077 145.186 377.982 144.567 379.887 143.615C381.792 142.662 383.077 141.091 383.744 138.9C384.506 136.71 384.887 133.424 384.887 129.043V75.0415C384.887 70.6605 384.506 67.3747 383.744 65.1841C382.982 62.8984 381.649 61.3269 379.744 60.4697C377.839 59.5173 374.982 58.8983 371.172 58.6125V52.0409H422.602C434.317 52.0409 443.269 54.041 449.46 58.0411C455.746 62.0412 458.889 68.1842 458.889 76.4701C458.889 83.8036 456.032 89.6609 450.317 94.042C444.603 98.3278 436.983 100.614 427.459 100.899L423.031 101.042V102.042L426.174 102.185C431.317 102.376 435.46 102.995 438.603 104.042C441.841 104.995 444.603 106.661 446.888 109.042C449.174 111.423 451.365 114.9 453.46 119.471L460.032 133.9C461.651 137.424 463.556 140.091 465.746 141.9C467.937 143.71 470.889 144.948 474.603 145.615V152.043H443.603C442.46 150.805 441.317 149.043 440.174 146.758C439.126 144.472 437.888 141.567 436.46 138.043L430.031 121.186C427.745 115.566 425.269 111.423 422.602 108.757C420.031 105.995 416.316 104.614 411.459 104.614H407.316V129.043C407.316 133.424 407.697 136.71 408.459 138.9C409.221 141.091 410.554 142.662 412.459 143.615C414.364 144.567 417.221 145.186 421.031 145.472V152.043H371.172V145.472ZM414.745 98.185C428.174 98.185 434.888 91.28 434.888 77.4702C434.888 72.3272 433.46 68.0413 430.602 64.6127C427.84 61.184 423.221 59.4697 416.745 59.4697H407.316V98.185H414.745Z" fill="#0E6100"/>
<path d="M517.621 136.615C522.288 136.615 526.05 135.9 528.907 134.472C531.86 132.948 534.336 130.71 536.336 127.757L541.479 130.329C539.86 136.615 536.526 142.091 531.479 146.758C526.431 151.424 519.621 153.758 511.05 153.758C504.478 153.758 498.621 152.234 493.478 149.186C488.43 146.043 484.478 141.757 481.62 136.329C478.858 130.9 477.477 124.757 477.477 117.9C477.477 110.09 478.811 103.233 481.477 97.3278C484.239 91.3276 488.144 86.6609 493.192 83.3274C498.24 79.994 504.192 78.3273 511.05 78.3273C520.288 78.3273 527.669 81.1845 533.193 86.899C538.717 92.6134 541.479 100.899 541.479 111.757H494.906C495.668 119.852 498.049 126.043 502.049 130.329C506.145 134.519 511.335 136.615 517.621 136.615ZM507.764 85.4704C499.287 85.4704 494.906 91.8515 494.621 104.614H519.193C519.193 98.3278 518.288 93.5658 516.478 90.3276C514.764 87.0894 511.859 85.4704 507.764 85.4704Z" fill="#0E6100"/>
<path d="M626.275 140.757C624.846 144.948 622.465 148.139 619.132 150.329C615.893 152.52 612.274 153.615 608.274 153.615C599.798 153.615 594.655 149.424 592.845 141.043H591.845C590.417 145.139 587.94 148.281 584.416 150.472C580.892 152.663 576.702 153.758 571.845 153.758C565.94 153.758 561.083 152.186 557.273 149.043C553.559 145.805 551.701 141.091 551.701 134.9C551.701 128.995 554.035 124.09 558.701 120.186C563.368 116.281 570.226 113.471 579.273 111.757L591.702 109.328V106.042C591.702 96.3278 586.893 91.4705 577.273 91.4705C568.892 91.4705 562.892 95.1373 559.273 102.471L553.701 100.042C555.225 93.661 558.559 88.4704 563.702 84.4703C568.94 80.375 575.75 78.3273 584.131 78.3273C593.655 78.3273 600.75 80.8988 605.417 86.0418C610.179 91.1848 612.56 98.6612 612.56 108.471V134.614C612.56 136.614 612.989 138.186 613.846 139.329C614.703 140.377 615.893 140.9 617.417 140.9C619.322 140.9 620.989 139.853 622.417 137.757L626.275 140.757ZM583.131 142.043C587.131 142.043 589.988 140.091 591.702 136.186V115.471L586.274 116.614C577.321 118.614 572.845 123.328 572.845 130.757C572.845 134.281 573.749 137.043 575.559 139.043C577.464 141.043 579.988 142.043 583.131 142.043Z" fill="#0E6100"/>
<path d="M712.614 152.043H682.613V147.043C682.613 145.519 682.804 143.567 683.185 141.186C683.565 138.805 684.137 136.662 684.899 134.757L683.899 134.329C681.994 140.424 679.089 145.186 675.184 148.615C671.279 152.043 666.279 153.758 660.184 153.758C654.66 153.758 649.755 152.377 645.469 149.615C641.279 146.853 637.993 142.948 635.612 137.9C633.231 132.757 632.04 126.852 632.04 120.186C632.04 111.423 633.85 103.899 637.469 97.6135C641.088 91.3276 645.898 86.5656 651.898 83.3274C657.993 79.994 664.66 78.3273 671.898 78.3273C675.327 78.3273 678.422 78.8988 681.184 80.0417V64.1841C681.184 61.4221 680.518 59.4697 679.184 58.3268C677.851 57.0887 675.851 56.4696 673.184 56.4696C670.803 56.4696 668.613 56.6601 666.613 57.0411V51.1838L695.899 43.4693H702.185V136.043C702.185 139.567 702.947 142.091 704.471 143.615C705.995 145.043 708.709 145.853 712.614 146.043V152.043ZM681.184 88.0419C679.184 86.3275 676.375 85.4704 672.756 85.4704C667.136 85.4704 662.565 87.8037 659.041 92.4705C655.517 97.0421 653.755 103.995 653.755 113.328C653.755 121.233 655.184 127.519 658.041 132.186C660.898 136.853 664.851 139.186 669.898 139.186C672.66 139.186 674.946 138.662 676.756 137.615C678.661 136.472 680.137 135.043 681.184 133.329V88.0419Z" fill="#0E6100"/>
<path d="M759.536 136.615C764.202 136.615 767.965 135.9 770.822 134.472C773.774 132.948 776.25 130.71 778.25 127.757L783.393 130.329C781.774 136.615 778.441 142.091 773.393 146.758C768.346 151.424 761.536 153.758 752.964 153.758C746.393 153.758 740.535 152.234 735.392 149.186C730.345 146.043 726.392 141.757 723.535 136.329C720.773 130.9 719.392 124.757 719.392 117.9C719.392 110.09 720.725 103.233 723.392 97.3278C726.154 91.3276 730.059 86.6609 735.107 83.3274C740.154 79.994 746.107 78.3273 752.964 78.3273C762.202 78.3273 769.584 81.1845 775.108 86.899C780.631 92.6134 783.393 100.899 783.393 111.757H736.821C737.583 119.852 739.964 126.043 743.964 130.329C748.059 134.519 753.25 136.615 759.536 136.615ZM749.678 85.4704C741.202 85.4704 736.821 91.8515 736.535 104.614H761.107C761.107 98.3278 760.202 93.5658 758.393 90.3276C756.678 87.0894 753.774 85.4704 749.678 85.4704Z" fill="#0E6100"/>
<path d="M846.594 78.3273C848.213 78.3273 849.546 78.5178 850.594 78.8988V100.756H846.737C844.927 99.6136 842.546 99.0421 839.594 99.0421C829.498 99.0421 824.45 104.423 824.45 115.185V136.043C824.45 138.805 824.927 140.9 825.879 142.329C826.831 143.662 828.308 144.567 830.308 145.043C832.308 145.519 835.26 145.853 839.165 146.043V152.043H792.878V146.043C797.069 145.758 799.878 144.996 801.307 143.758C802.831 142.424 803.593 140.043 803.593 136.615V99.6136C803.593 95.7087 801.402 93.7563 797.021 93.7563L792.449 94.042V88.0419L815.736 80.0417H822.879V94.7563C822.879 97.0421 822.736 99.7088 822.45 102.757C822.26 105.804 822.022 108.185 821.736 109.9L822.879 110.042L824.593 99.3278C825.641 92.8515 828.069 87.7561 831.879 84.0418C835.784 80.2321 840.689 78.3273 846.594 78.3273Z" fill="#0E6100"/>
<circle cx="430.53" cy="78.2409" r="17.2544" fill="#FEF6F0" stroke="#0E6100" stroke-width="2.09613"/>
<circle cx="432.201" cy="83.33" r="8.31022" fill="#0E6100" stroke="#0E6100" stroke-width="2.09613"/>
<circle cx="409.615" cy="78.2409" r="17.2544" fill="#FEF6F0" stroke="#0E6100" stroke-width="2.09613"/>
<circle cx="411.291" cy="83.33" r="8.31022" fill="#0E6100" stroke="#0E6100" stroke-width="2.09613"/>
</svg>
